<svg width="20" height="21" viewBox="0 0 20 21" fill="none" xmlns="http://www.w3.org/2000/svg">
<path d="M10 0.938477C4.47552 0.938477 0 5.39105 0 10.8872C0 16.3833 4.47552 20.8359 10 20.8359C15.5245 20.8359 20 16.3833 20 10.8872C20 5.39105 15.5245 0.938477 10 0.938477ZM14.6154 8.73048C14.6154 8.80005 14.6154 8.93919 14.6154 9.00877C14.6154 12.5569 11.7483 15.4789 8.18182 15.5485H8.11189C6.85315 15.5485 5.66433 15.2006 4.61538 14.5049C4.82517 14.5049 4.96503 14.5049 5.17482 14.5049C6.22377 14.5049 7.2028 14.1571 8.04196 13.5309C7.06294 13.5309 6.22377 12.9048 5.87412 11.9308C6.22377 12.0003 6.57342 12.0003 6.92307 11.8612C5.87412 11.6525 5.10489 10.6785 5.10489 9.63491C5.45454 9.84362 5.80419 9.91319 6.15385 9.91319C5.17482 9.21748 4.82517 7.89562 5.45454 6.85205C6.64336 8.31305 8.32168 9.14791 10.2098 9.21748C9.93007 7.96519 10.6993 6.78248 11.958 6.43462C12.7273 6.22591 13.5664 6.50419 14.1259 7.13034C14.6154 7.06076 15.1049 6.85205 15.5944 6.57376C15.4545 7.13034 15.035 7.54776 14.6154 7.82605C15.1049 7.75648 15.5245 7.61734 15.9441 7.47819C15.4545 7.96519 15.035 8.38262 14.6154 8.73048Z" fill="#1DA1F2"/>
</svg>
